<svg version="1.1" xmlns="http://www.w3.org/2000/svg" xmlns:xlink="http://www.w3.org/1999/xlink" width="470" height="346" viewBox="0,0,470,346"><g transform="translate(-5.9375,-6)"><g data-paper-data="{&quot;isPaintingLayer&quot;:true}" fill-rule="nonzero" stroke-linejoin="miter" stroke-miterlimit="10" stroke-dasharray="" stroke-dashoffset="0" style="mix-blend-mode: normal"><path d="M129.85547,270.71875c0,11.64976 -9.82175,21.09375 -21.9375,21.09375c-12.11575,0 -21.9375,-9.44399 -21.9375,-21.09375c0,-11.64976 9.82175,-21.09375 21.9375,-21.09375c12.11575,0 21.9375,9.44399 21.9375,21.09375z" fill="none" stroke="#ffffff" stroke-width="0.5" stroke-linecap="butt"/><path d="M6.4375,351.5v-345h231v345z" fill="none" stroke="#ffffff" stroke-width="1" stroke-linecap="butt"/><path d="M244.4375,351.5v-345h231v345z" fill="none" stroke="#ffffff" stroke-width="1" stroke-linecap="butt"/><text transform="translate(88.4375,340.5) scale(0.5,0.5)" font-size="40" xml:space="preserve" fill="#ffffff" fill-rule="nonzero" stroke="none" stroke-width="1" stroke-linecap="butt" stroke-linejoin="miter" stroke-miterlimit="10" stroke-dasharray="" stroke-dashoffset="0" font-family="Pixel" font-weight="normal" text-anchor="start" style="mix-blend-mode: normal"><tspan x="0" dy="0">DUCK</tspan></text><text transform="translate(347.4375,341.5) scale(0.5,0.5)" font-size="40" xml:space="preserve" fill="#ffffff" fill-rule="nonzero" stroke="none" stroke-width="1" stroke-linecap="butt" stroke-linejoin="miter" stroke-miterlimit="10" stroke-dasharray="" stroke-dashoffset="0" font-family="Pixel" font-weight="normal" text-anchor="start" style="mix-blend-mode: normal"><tspan x="0" dy="0">JUMP</tspan></text><g fill="none" stroke="#000000" stroke-linecap="round"><path d="M126.1365,289.73658l-7.8125,-0.3125" stroke-width="5.5"/><path d="M125.199,286.29908l-17.1875,-15.9375" stroke-width="5.5"/><path d="M122.074,276.92408l9.0625,9.375" stroke-width="5.5"/><path d="M124.8865,274.42408l8.4375,8.4375" stroke-width="5.5"/><path d="M129.2615,272.54908l7.1875,6.875" stroke-width="5.5"/><path d="M136.449,281.29908c0,0 0.51984,4.83907 -0.95822,6.48135c-1.31545,1.46161 -7.79178,1.01865 -7.79178,1.01865" stroke-width="7"/></g></g></g></svg>