<svg version="1.1" xmlns="http://www.w3.org/2000/svg" xmlns:xlink="http://www.w3.org/1999/xlink" width="470" height="346" viewBox="0,0,470,346"><g transform="translate(-5.9375,-6)"><g data-paper-data="{&quot;isPaintingLayer&quot;:true}" fill-rule="nonzero" stroke-linejoin="miter" stroke-miterlimit="10" stroke-dasharray="" stroke-dashoffset="0" style="mix-blend-mode: normal"><path d="M391.73047,257.58173c0,10.62087 -8.95431,19.23077 -20,19.23077c-11.04569,0 -20,-8.6099 -20,-19.23077c0,-10.62087 8.95431,-19.23077 20,-19.23077c11.04569,0 20,8.6099 20,19.23077z" fill="none" stroke="#ffffff" stroke-width="0.5" stroke-linecap="butt"/><path d="M6.4375,351.5v-345h231v345z" fill="none" stroke="#ffffff" stroke-width="1" stroke-linecap="butt"/><path d="M244.4375,351.5v-345h231v345z" fill="none" stroke="#ffffff" stroke-width="1" stroke-linecap="butt"/><text transform="translate(88.4375,340.5) scale(0.5,0.5)" font-size="40" xml:space="preserve" fill="#ffffff" fill-rule="nonzero" stroke="none" stroke-width="1" stroke-linecap="butt" stroke-linejoin="miter" stroke-miterlimit="10" stroke-dasharray="" stroke-dashoffset="0" font-family="Pixel" font-weight="normal" text-anchor="start" style="mix-blend-mode: normal"><tspan x="0" dy="0">DUCK</tspan></text><text transform="translate(347.4375,341.5) scale(0.5,0.5)" font-size="40" xml:space="preserve" fill="#ffffff" fill-rule="nonzero" stroke="none" stroke-width="1" stroke-linecap="butt" stroke-linejoin="miter" stroke-miterlimit="10" stroke-dasharray="" stroke-dashoffset="0" font-family="Pixel" font-weight="normal" text-anchor="start" style="mix-blend-mode: normal"><tspan x="0" dy="0">JUMP</tspan></text><g fill="none" stroke="#000000" stroke-linecap="round"><path d="M389.8865,276.61158l-7.8125,-0.3125" stroke-width="5.5"/><path d="M388.949,273.17408l-17.1875,-15.9375" stroke-width="5.5"/><path d="M385.824,263.79908l9.0625,9.375" stroke-width="5.5"/><path d="M388.6365,261.29908l8.4375,8.4375" stroke-width="5.5"/><path d="M393.0115,259.42408l7.1875,6.875" stroke-width="5.5"/><path d="M400.199,268.17408c0,0 0.51984,4.83907 -0.95822,6.48135c-1.31545,1.46161 -7.79178,1.01865 -7.79178,1.01865" stroke-width="7"/></g></g></g></svg>